<svg width="25" height="23" viewBox="0 0 25 23" fill="none" xmlns="http://www.w3.org/2000/svg">
<path fill-rule="evenodd" clip-rule="evenodd" d="M18.6737 0C20.35 0 21.9625 0.677222 23.1487 1.89239C24.3362 3.105 25 4.74056 25 6.45278V16.5472C25 20.1122 22.1625 23 18.6737 23H6.325C2.83625 23 0 20.1122 0 16.5472V6.45278C0 2.88778 2.82375 0 6.325 0H18.6737ZM20.6625 8.35671L20.7625 8.25449C21.0613 7.88393 21.0613 7.34727 20.7488 6.97671C20.575 6.78632 20.3363 6.67004 20.0875 6.64449C19.825 6.63043 19.575 6.72116 19.3863 6.90004L13.75 11.5C13.025 12.1147 11.9863 12.1147 11.25 11.5L5.625 6.90004C5.23625 6.60615 4.69875 6.64449 4.375 6.98949C4.0375 7.33449 4 7.88393 4.28625 8.26727L4.45 8.43338L10.1375 12.9695C10.8375 13.5317 11.6863 13.8384 12.575 13.8384C13.4613 13.8384 14.325 13.5317 15.0238 12.9695L20.6625 8.35671Z" fill="white"/>
</svg>
